<mxfile host="app.diagrams.net" modified="2023-06-30T08:50:53.199Z" agent="Mozilla/5.0 (Windows NT 10.0; Win64; x64) AppleWebKit/537.36 (KHTML, like Gecko) Chrome/114.0.0.0 Safari/537.36" etag="km88IJ6FTX6XY8McBB-o" version="21.5.0" type="device">
  <diagram name="Trang-1" id="WE3FUwz1G4oO4y1NMfoq">
    <mxGraphModel dx="2415" dy="2047" grid="1" gridSize="10" guides="1" tooltips="1" connect="1" arrows="1" fold="1" page="1" pageScale="1" pageWidth="827" pageHeight="1169" math="0" shadow="0">
      <root>
        <mxCell id="0" />
        <mxCell id="1" parent="0" />
        <mxCell id="lA_AZeuL4TYPZsxHrZoW-47" value="" style="rounded=0;whiteSpace=wrap;html=1;fontSize=17;" vertex="1" parent="1">
          <mxGeometry x="90" y="-225" width="420" height="1590" as="geometry" />
        </mxCell>
        <mxCell id="lA_AZeuL4TYPZsxHrZoW-1" value="guest" style="shape=umlActor;verticalLabelPosition=bottom;verticalAlign=top;html=1;outlineConnect=0;fontSize=17;" vertex="1" parent="1">
          <mxGeometry x="-10" y="140" width="30" height="60" as="geometry" />
        </mxCell>
        <mxCell id="lA_AZeuL4TYPZsxHrZoW-6" value="xem trang web" style="ellipse;whiteSpace=wrap;html=1;fontSize=17;" vertex="1" parent="1">
          <mxGeometry x="240" y="-120" width="120" height="80" as="geometry" />
        </mxCell>
        <mxCell id="lA_AZeuL4TYPZsxHrZoW-7" value="Đăng ký/đăng nhập" style="ellipse;whiteSpace=wrap;html=1;fontSize=17;" vertex="1" parent="1">
          <mxGeometry x="240" y="-30" width="120" height="80" as="geometry" />
        </mxCell>
        <mxCell id="lA_AZeuL4TYPZsxHrZoW-8" value="tìm kiếm" style="ellipse;whiteSpace=wrap;html=1;fontSize=17;" vertex="1" parent="1">
          <mxGeometry x="240" y="60" width="120" height="80" as="geometry" />
        </mxCell>
        <mxCell id="lA_AZeuL4TYPZsxHrZoW-9" value="xem chi tiết sản phẩm" style="ellipse;whiteSpace=wrap;html=1;fontSize=17;" vertex="1" parent="1">
          <mxGeometry x="240" y="150" width="120" height="80" as="geometry" />
        </mxCell>
        <mxCell id="lA_AZeuL4TYPZsxHrZoW-10" value="user" style="shape=umlActor;verticalLabelPosition=bottom;verticalAlign=top;html=1;outlineConnect=0;fontSize=17;" vertex="1" parent="1">
          <mxGeometry x="-20" y="370" width="30" height="60" as="geometry" />
        </mxCell>
        <mxCell id="lA_AZeuL4TYPZsxHrZoW-11" value="bình luận" style="ellipse;whiteSpace=wrap;html=1;fontSize=17;" vertex="1" parent="1">
          <mxGeometry x="240" y="350" width="120" height="80" as="geometry" />
        </mxCell>
        <mxCell id="lA_AZeuL4TYPZsxHrZoW-12" value="thêm giỏ hàng" style="ellipse;whiteSpace=wrap;html=1;fontSize=17;" vertex="1" parent="1">
          <mxGeometry x="240" y="440" width="120" height="80" as="geometry" />
        </mxCell>
        <mxCell id="lA_AZeuL4TYPZsxHrZoW-14" value="thích sản phẩm" style="ellipse;whiteSpace=wrap;html=1;fontSize=17;" vertex="1" parent="1">
          <mxGeometry x="240" y="530" width="120" height="80" as="geometry" />
        </mxCell>
        <mxCell id="lA_AZeuL4TYPZsxHrZoW-15" value="chỉnh sửa thông tin cá nhân" style="ellipse;whiteSpace=wrap;html=1;fontSize=17;" vertex="1" parent="1">
          <mxGeometry x="240" y="620" width="120" height="80" as="geometry" />
        </mxCell>
        <mxCell id="lA_AZeuL4TYPZsxHrZoW-16" value="admin" style="shape=umlActor;verticalLabelPosition=bottom;verticalAlign=top;html=1;outlineConnect=0;fontSize=17;" vertex="1" parent="1">
          <mxGeometry x="-40" y="730" width="30" height="60" as="geometry" />
        </mxCell>
        <mxCell id="lA_AZeuL4TYPZsxHrZoW-17" value="quản lý sản phẩm" style="ellipse;whiteSpace=wrap;html=1;fontSize=17;" vertex="1" parent="1">
          <mxGeometry x="240" y="750" width="120" height="80" as="geometry" />
        </mxCell>
        <mxCell id="lA_AZeuL4TYPZsxHrZoW-18" value="lọc sản phẩm" style="ellipse;whiteSpace=wrap;html=1;fontSize=17;" vertex="1" parent="1">
          <mxGeometry x="240" y="240" width="120" height="80" as="geometry" />
        </mxCell>
        <mxCell id="lA_AZeuL4TYPZsxHrZoW-19" value="quản lý danh mục" style="ellipse;whiteSpace=wrap;html=1;fontSize=17;" vertex="1" parent="1">
          <mxGeometry x="240" y="840" width="120" height="80" as="geometry" />
        </mxCell>
        <mxCell id="lA_AZeuL4TYPZsxHrZoW-20" value="quản lý tài khoản khách hàng" style="ellipse;whiteSpace=wrap;html=1;fontSize=17;" vertex="1" parent="1">
          <mxGeometry x="240" y="930" width="120" height="80" as="geometry" />
        </mxCell>
        <mxCell id="lA_AZeuL4TYPZsxHrZoW-21" value="quản lý bình luận" style="ellipse;whiteSpace=wrap;html=1;fontSize=17;" vertex="1" parent="1">
          <mxGeometry x="240" y="1020" width="120" height="80" as="geometry" />
        </mxCell>
        <mxCell id="lA_AZeuL4TYPZsxHrZoW-22" value="quản lý đơn hàng" style="ellipse;whiteSpace=wrap;html=1;fontSize=17;" vertex="1" parent="1">
          <mxGeometry x="240" y="1110" width="120" height="80" as="geometry" />
        </mxCell>
        <mxCell id="lA_AZeuL4TYPZsxHrZoW-23" value="xem thống kê" style="ellipse;whiteSpace=wrap;html=1;fontSize=17;" vertex="1" parent="1">
          <mxGeometry x="240" y="1200" width="120" height="80" as="geometry" />
        </mxCell>
        <mxCell id="lA_AZeuL4TYPZsxHrZoW-24" value="" style="endArrow=classic;html=1;rounded=0;exitX=0.5;exitY=0;exitDx=0;exitDy=0;exitPerimeter=0;entryX=0;entryY=1;entryDx=0;entryDy=0;entryPerimeter=0;fontSize=17;" edge="1" parent="1" source="lA_AZeuL4TYPZsxHrZoW-16" target="lA_AZeuL4TYPZsxHrZoW-10">
          <mxGeometry width="50" height="50" relative="1" as="geometry">
            <mxPoint x="-60" y="590" as="sourcePoint" />
            <mxPoint x="-10" y="540" as="targetPoint" />
          </mxGeometry>
        </mxCell>
        <mxCell id="lA_AZeuL4TYPZsxHrZoW-26" value="" style="endArrow=classic;html=1;rounded=0;entryX=0;entryY=1;entryDx=0;entryDy=0;entryPerimeter=0;exitX=0.5;exitY=0;exitDx=0;exitDy=0;exitPerimeter=0;fontSize=17;" edge="1" parent="1" source="lA_AZeuL4TYPZsxHrZoW-10" target="lA_AZeuL4TYPZsxHrZoW-1">
          <mxGeometry width="50" height="50" relative="1" as="geometry">
            <mxPoint x="-160" y="300" as="sourcePoint" />
            <mxPoint x="-110" y="250" as="targetPoint" />
          </mxGeometry>
        </mxCell>
        <mxCell id="lA_AZeuL4TYPZsxHrZoW-29" value="" style="endArrow=classic;html=1;rounded=0;entryX=0;entryY=0.5;entryDx=0;entryDy=0;exitX=1;exitY=0.3333333333333333;exitDx=0;exitDy=0;exitPerimeter=0;fontSize=17;" edge="1" parent="1" source="lA_AZeuL4TYPZsxHrZoW-1" target="lA_AZeuL4TYPZsxHrZoW-8">
          <mxGeometry width="50" height="50" relative="1" as="geometry">
            <mxPoint x="20" y="490" as="sourcePoint" />
            <mxPoint x="70" y="440" as="targetPoint" />
          </mxGeometry>
        </mxCell>
        <mxCell id="lA_AZeuL4TYPZsxHrZoW-30" value="" style="endArrow=classic;html=1;rounded=0;entryX=0;entryY=0.5;entryDx=0;entryDy=0;exitX=1;exitY=0.3333333333333333;exitDx=0;exitDy=0;exitPerimeter=0;fontSize=17;" edge="1" parent="1" source="lA_AZeuL4TYPZsxHrZoW-1" target="lA_AZeuL4TYPZsxHrZoW-7">
          <mxGeometry width="50" height="50" relative="1" as="geometry">
            <mxPoint x="-40" y="140" as="sourcePoint" />
            <mxPoint x="10" y="90" as="targetPoint" />
          </mxGeometry>
        </mxCell>
        <mxCell id="lA_AZeuL4TYPZsxHrZoW-31" value="" style="endArrow=classic;html=1;rounded=0;entryX=0;entryY=0.5;entryDx=0;entryDy=0;exitX=1;exitY=0.3333333333333333;exitDx=0;exitDy=0;exitPerimeter=0;fontSize=17;" edge="1" parent="1" source="lA_AZeuL4TYPZsxHrZoW-1" target="lA_AZeuL4TYPZsxHrZoW-9">
          <mxGeometry width="50" height="50" relative="1" as="geometry">
            <mxPoint x="-140" y="260" as="sourcePoint" />
            <mxPoint x="-90" y="210" as="targetPoint" />
          </mxGeometry>
        </mxCell>
        <mxCell id="lA_AZeuL4TYPZsxHrZoW-32" value="" style="endArrow=classic;html=1;rounded=0;entryX=0;entryY=0.5;entryDx=0;entryDy=0;exitX=1;exitY=0.3333333333333333;exitDx=0;exitDy=0;exitPerimeter=0;fontSize=17;" edge="1" parent="1" source="lA_AZeuL4TYPZsxHrZoW-1" target="lA_AZeuL4TYPZsxHrZoW-18">
          <mxGeometry width="50" height="50" relative="1" as="geometry">
            <mxPoint x="-80" y="280" as="sourcePoint" />
            <mxPoint x="-30" y="230" as="targetPoint" />
          </mxGeometry>
        </mxCell>
        <mxCell id="lA_AZeuL4TYPZsxHrZoW-33" value="" style="endArrow=classic;html=1;rounded=0;entryX=0;entryY=0.5;entryDx=0;entryDy=0;exitX=1;exitY=0.3333333333333333;exitDx=0;exitDy=0;exitPerimeter=0;fontSize=17;" edge="1" parent="1" source="lA_AZeuL4TYPZsxHrZoW-10" target="lA_AZeuL4TYPZsxHrZoW-11">
          <mxGeometry width="50" height="50" relative="1" as="geometry">
            <mxPoint x="-40" y="350" as="sourcePoint" />
            <mxPoint x="10" y="300" as="targetPoint" />
          </mxGeometry>
        </mxCell>
        <mxCell id="lA_AZeuL4TYPZsxHrZoW-34" value="" style="endArrow=classic;html=1;rounded=0;entryX=0;entryY=0.5;entryDx=0;entryDy=0;exitX=1;exitY=0.3333333333333333;exitDx=0;exitDy=0;exitPerimeter=0;fontSize=17;" edge="1" parent="1" source="lA_AZeuL4TYPZsxHrZoW-10" target="lA_AZeuL4TYPZsxHrZoW-12">
          <mxGeometry width="50" height="50" relative="1" as="geometry">
            <mxPoint x="-90" y="500" as="sourcePoint" />
            <mxPoint x="-40" y="450" as="targetPoint" />
          </mxGeometry>
        </mxCell>
        <mxCell id="lA_AZeuL4TYPZsxHrZoW-35" value="" style="endArrow=classic;html=1;rounded=0;entryX=0;entryY=0.5;entryDx=0;entryDy=0;exitX=1;exitY=0.3333333333333333;exitDx=0;exitDy=0;exitPerimeter=0;fontSize=17;" edge="1" parent="1" source="lA_AZeuL4TYPZsxHrZoW-10" target="lA_AZeuL4TYPZsxHrZoW-14">
          <mxGeometry width="50" height="50" relative="1" as="geometry">
            <mxPoint x="-140" y="520" as="sourcePoint" />
            <mxPoint x="-90" y="470" as="targetPoint" />
          </mxGeometry>
        </mxCell>
        <mxCell id="lA_AZeuL4TYPZsxHrZoW-36" value="" style="endArrow=classic;html=1;rounded=0;entryX=0;entryY=0.5;entryDx=0;entryDy=0;exitX=1;exitY=0.3333333333333333;exitDx=0;exitDy=0;exitPerimeter=0;fontSize=17;" edge="1" parent="1" source="lA_AZeuL4TYPZsxHrZoW-10" target="lA_AZeuL4TYPZsxHrZoW-15">
          <mxGeometry width="50" height="50" relative="1" as="geometry">
            <mxPoint x="-100" y="480" as="sourcePoint" />
            <mxPoint x="-50" y="430" as="targetPoint" />
          </mxGeometry>
        </mxCell>
        <mxCell id="lA_AZeuL4TYPZsxHrZoW-37" value="" style="endArrow=classic;html=1;rounded=0;entryX=0;entryY=0.5;entryDx=0;entryDy=0;exitX=1;exitY=0.3333333333333333;exitDx=0;exitDy=0;exitPerimeter=0;fontSize=17;" edge="1" parent="1" source="lA_AZeuL4TYPZsxHrZoW-16" target="lA_AZeuL4TYPZsxHrZoW-17">
          <mxGeometry width="50" height="50" relative="1" as="geometry">
            <mxPoint x="-150" y="910" as="sourcePoint" />
            <mxPoint x="-100" y="860" as="targetPoint" />
          </mxGeometry>
        </mxCell>
        <mxCell id="lA_AZeuL4TYPZsxHrZoW-38" value="" style="endArrow=classic;html=1;rounded=0;entryX=0;entryY=0.5;entryDx=0;entryDy=0;exitX=1;exitY=0.3333333333333333;exitDx=0;exitDy=0;exitPerimeter=0;fontSize=17;" edge="1" parent="1" source="lA_AZeuL4TYPZsxHrZoW-16" target="lA_AZeuL4TYPZsxHrZoW-19">
          <mxGeometry width="50" height="50" relative="1" as="geometry">
            <mxPoint x="40" y="750" as="sourcePoint" />
            <mxPoint x="-120" y="900" as="targetPoint" />
          </mxGeometry>
        </mxCell>
        <mxCell id="lA_AZeuL4TYPZsxHrZoW-39" value="" style="endArrow=classic;html=1;rounded=0;entryX=0;entryY=0.5;entryDx=0;entryDy=0;exitX=1;exitY=0.3333333333333333;exitDx=0;exitDy=0;exitPerimeter=0;fontSize=17;" edge="1" parent="1" source="lA_AZeuL4TYPZsxHrZoW-16" target="lA_AZeuL4TYPZsxHrZoW-20">
          <mxGeometry width="50" height="50" relative="1" as="geometry">
            <mxPoint x="30" y="750" as="sourcePoint" />
            <mxPoint x="-40" y="860" as="targetPoint" />
          </mxGeometry>
        </mxCell>
        <mxCell id="lA_AZeuL4TYPZsxHrZoW-40" value="" style="endArrow=classic;html=1;rounded=0;entryX=0;entryY=0.5;entryDx=0;entryDy=0;exitX=1;exitY=0.3333333333333333;exitDx=0;exitDy=0;exitPerimeter=0;fontSize=17;" edge="1" parent="1" source="lA_AZeuL4TYPZsxHrZoW-16" target="lA_AZeuL4TYPZsxHrZoW-21">
          <mxGeometry width="50" height="50" relative="1" as="geometry">
            <mxPoint x="-130" y="960" as="sourcePoint" />
            <mxPoint x="-80" y="910" as="targetPoint" />
          </mxGeometry>
        </mxCell>
        <mxCell id="lA_AZeuL4TYPZsxHrZoW-41" value="" style="endArrow=classic;html=1;rounded=0;entryX=0;entryY=0.5;entryDx=0;entryDy=0;exitX=1;exitY=0.3333333333333333;exitDx=0;exitDy=0;exitPerimeter=0;fontSize=17;" edge="1" parent="1" source="lA_AZeuL4TYPZsxHrZoW-16" target="lA_AZeuL4TYPZsxHrZoW-22">
          <mxGeometry width="50" height="50" relative="1" as="geometry">
            <mxPoint x="-180" y="980" as="sourcePoint" />
            <mxPoint x="-130" y="930" as="targetPoint" />
          </mxGeometry>
        </mxCell>
        <mxCell id="lA_AZeuL4TYPZsxHrZoW-42" value="" style="endArrow=classic;html=1;rounded=0;entryX=0;entryY=0.5;entryDx=0;entryDy=0;exitX=1;exitY=0.3333333333333333;exitDx=0;exitDy=0;exitPerimeter=0;fontSize=17;" edge="1" parent="1" source="lA_AZeuL4TYPZsxHrZoW-16" target="lA_AZeuL4TYPZsxHrZoW-23">
          <mxGeometry width="50" height="50" relative="1" as="geometry">
            <mxPoint x="-100" y="940" as="sourcePoint" />
            <mxPoint x="-50" y="890" as="targetPoint" />
          </mxGeometry>
        </mxCell>
        <mxCell id="lA_AZeuL4TYPZsxHrZoW-44" value="" style="endArrow=classic;html=1;rounded=0;entryX=0;entryY=0.5;entryDx=0;entryDy=0;exitX=1;exitY=0.3333333333333333;exitDx=0;exitDy=0;exitPerimeter=0;fontSize=17;" edge="1" parent="1" source="lA_AZeuL4TYPZsxHrZoW-1" target="lA_AZeuL4TYPZsxHrZoW-6">
          <mxGeometry width="50" height="50" relative="1" as="geometry">
            <mxPoint x="60" y="60" as="sourcePoint" />
            <mxPoint x="110" y="10" as="targetPoint" />
          </mxGeometry>
        </mxCell>
      </root>
    </mxGraphModel>
  </diagram>
</mxfile>
